<svg xmlns="http://www.w3.org/2000/svg" width="760" height="1100" viewBox="0 0 760 1100" role="img" aria-label="anime heroine placeholder">
  <defs>
    <linearGradient id="hair" x1="0" x2="1" y1="0" y2="1">
      <stop offset="0" stop-color="#6fe7ff"/>
      <stop offset="1" stop-color="#906dff"/>
    </linearGradient>
    <linearGradient id="coat" x1="0" x2="1" y1="0" y2="1">
      <stop offset="0" stop-color="#192b5f"/>
      <stop offset="1" stop-color="#111827"/>
    </linearGradient>
    <filter id="soft" x="-20%" y="-20%" width="140%" height="140%">
      <feDropShadow dx="0" dy="22" stdDeviation="22" flood-color="#000000" flood-opacity=".35"/>
    </filter>
  </defs>
  <g filter="url(#soft)">
    <path d="M258 166c58-86 205-80 255 9 50 88 19 205 82 303 57 89 32 219-67 259-88 35-259 35-345-4-104-48-107-177-61-261 52-96 35-219 136-306Z" fill="url(#hair)"/>
    <path d="M221 563c44-72 259-83 317 0 50 73 84 249 78 404H154c-4-157 16-353 67-404Z" fill="url(#coat)"/>
    <path d="M284 498h176v119c0 48-35 86-80 86s-80-38-80-86V498Z" fill="#ffd5c2"/>
    <ellipse cx="380" cy="354" rx="156" ry="184" fill="#ffe0cf"/>
    <path d="M242 330c85-53 177-65 301-6-6-86-74-158-167-158-87 0-162 67-134 164Z" fill="url(#hair)"/>
    <path d="M250 379c53-25 68-94 82-150 30 69 90 117 220 136-8-113-87-199-184-199-102 0-183 89-118 213Z" fill="url(#hair)" opacity=".92"/>
    <ellipse cx="324" cy="385" rx="18" ry="25" fill="#17324d"/>
    <ellipse cx="444" cy="385" rx="18" ry="25" fill="#17324d"/>
    <circle cx="331" cy="376" r="6" fill="#fff"/>
    <circle cx="451" cy="376" r="6" fill="#fff"/>
    <path d="M343 473c28 21 72 21 99 0" fill="none" stroke="#d25d75" stroke-width="9" stroke-linecap="round"/>
    <path d="M238 656c64 44 154 63 263 0l31 306H203l35-306Z" fill="#f8fbff" opacity=".9"/>
    <path d="M184 707c-47 92-55 197-52 260h124l16-259-86-62Z" fill="#243d7d"/>
    <path d="M575 707c47 92 55 197 52 260H503l-16-259 86-62Z" fill="#243d7d"/>
    <path d="M323 684l57 72 57-72 44 283H279l44-283Z" fill="#ff75d8" opacity=".88"/>
  </g>
</svg>
